<svg width="1802" height="451" viewBox="0 0 1802 451" fill="none" xmlns="http://www.w3.org/2000/svg">
<path d="M552.048 201.403H520L593.489 3.86782H626.365L700.406 201.403H667.253L650.953 153.884H568.348L552.048 201.403ZM609.512 32.0476L577.465 128.19H642.389L610.065 32.0476H609.512Z" fill="black"/>
<path d="M779.362 205.271C722.45 205.271 690.402 162.172 690.402 102.497C690.402 43.0985 726.594 0 782.953 0C834.064 0 861.138 27.351 867.493 64.9241H835.721C830.472 40.0595 811.962 26.2459 782.677 26.2459C739.026 26.2459 722.173 65.4766 722.173 102.497C722.173 139.794 734.882 179.025 781.019 179.025C813.619 179.025 839.589 156.37 839.865 123.494H781.572V98.0768H870.808V201.403H849.811L842.352 174.052H841.799C827.986 194.22 809.475 205.271 779.362 205.271Z" fill="black"/>
<path d="M1032.24 201.403H889.679V3.86782H1029.47V30.1137H920.069V86.197H1015.94V112.443H920.069V175.157H1032.24V201.403Z" fill="black"/>
<path d="M1077.31 201.403H1046.92V3.86782H1081.73L1173.45 155.818H1174V3.86782H1204.67V201.403H1169.86L1077.86 49.4528H1077.31V201.403Z" fill="black"/>
<path d="M1312.66 205.271C1256.58 205.271 1220.39 162.172 1220.39 102.773C1220.39 43.0985 1256.85 0 1312.94 0C1362.39 0 1393.06 31.4951 1397.75 71.0021H1365.98C1362.39 51.663 1350.23 26.2459 1312.38 26.2459C1268.73 26.2459 1252.16 63.2664 1252.16 102.497C1252.16 142.004 1268.73 179.025 1312.38 179.025C1350.51 179.025 1364.05 153.608 1365.98 129.572H1397.75C1393.33 173.499 1362.39 205.271 1312.66 205.271Z" fill="black"/>
<path d="M1553.86 201.403H1411.3V3.86782H1551.1V30.1137H1441.7V86.197H1537.56V112.443H1441.7V175.157H1553.86V201.403Z" fill="black"/>
<path d="M1614.83 201.403H1589.69L1666.22 3.86782H1691.36L1614.83 201.403Z" fill="#4255FF"/>
<path d="M612.828 450.271C562.822 450.271 527.736 424.301 525.525 379.821H557.021C559.231 406.343 574.978 424.301 611.999 424.301C643.77 424.301 653.44 410.487 653.44 392.53C653.44 367.389 634.101 363.797 598.185 354.68C567.243 346.392 533.261 336.446 533.261 298.873C533.261 264.615 559.783 245 602.329 245C647.362 245 676.647 267.931 679.686 307.714H648.19C644.875 283.954 631.338 270.97 602.606 270.97C577.741 270.97 565.032 280.087 565.032 297.216C565.032 319.317 585.753 324.014 611.17 330.368C649.296 340.038 685.211 349.155 685.211 390.872C685.211 424.853 662.28 450.271 612.828 450.271Z" fill="black"/>
<path d="M773.253 446.403H742.587V367.389L671.861 248.868H704.738L757.782 343.353H758.335L811.379 248.868H843.979L773.253 367.389V446.403Z" fill="black"/>
<path d="M881.475 446.403H851.637V248.868H891.697L948.609 404.133H949.161L1006.35 248.868H1046.41V446.403H1016.57V293.071H1016.02L961.594 446.403H936.453L882.027 293.071H881.475V446.403Z" fill="black"/>
<path d="M1159.87 446.403H1071.74V248.868H1154.9C1195.51 248.868 1219.27 267.102 1219.27 298.597C1219.27 322.909 1204.9 334.236 1188.6 339.762V340.314C1209.32 343.906 1227 359.101 1227 388.662C1227 426.511 1200.76 446.403 1159.87 446.403ZM1102.13 330.921H1154.07C1178.93 330.921 1187.5 320.699 1187.5 303.017C1187.5 285.612 1177 275.114 1156.28 275.114H1102.13V330.921ZM1102.13 420.157H1157.66C1186.94 420.157 1195.23 406.067 1195.23 387.557C1195.23 366.836 1182.52 354.956 1161.8 354.956H1102.13V420.157Z" fill="black"/>
<path d="M1272.59 446.403H1242.2V248.868H1272.59V446.403Z" fill="black"/>
<path d="M1385.29 450.271C1326.17 450.271 1288.32 406.896 1288.32 347.497C1288.32 288.099 1326.17 245 1385.29 245C1444.41 245 1482.26 288.099 1482.26 347.497C1482.26 406.896 1444.41 450.271 1385.29 450.271ZM1385.29 424.025C1431.98 424.025 1450.49 388.109 1450.49 347.497C1450.49 306.885 1431.98 271.246 1385.29 271.246C1338.6 271.246 1320.09 306.885 1320.09 347.497C1320.09 388.109 1338.6 424.025 1385.29 424.025Z" fill="black"/>
<path d="M1572.44 450.271C1522.44 450.271 1487.35 424.301 1485.14 379.821H1516.64C1518.85 406.343 1534.59 424.301 1571.61 424.301C1603.39 424.301 1613.06 410.487 1613.06 392.53C1613.06 367.389 1593.72 363.797 1557.8 354.68C1526.86 346.392 1492.88 336.446 1492.88 298.873C1492.88 264.615 1519.4 245 1561.94 245C1606.98 245 1636.26 267.931 1639.3 307.714H1607.81C1604.49 283.954 1590.95 270.97 1562.22 270.97C1537.36 270.97 1524.65 280.087 1524.65 297.216C1524.65 319.317 1545.37 324.014 1570.79 330.368C1608.91 340.038 1644.83 349.155 1644.83 390.872C1644.83 424.853 1621.9 450.271 1572.44 450.271Z" fill="black"/>
<path d="M1801.43 446.403H1658.87V248.868H1798.67V275.114H1689.26V331.197H1785.13V357.443H1689.26V420.157H1801.43V446.403Z" fill="black"/>
<circle cx="225" cy="225" r="214.93" stroke="url(#paint0_linear_1906_59)" stroke-width="20.14"/>
<path d="M116.5 10.0703C142.986 10.0703 169.473 31.0106 189.936 70.5312C210.136 109.545 222.93 164.142 222.93 225C222.93 285.858 210.136 340.455 189.936 379.469C169.473 418.989 142.986 439.93 116.5 439.93C90.014 439.93 63.5274 418.989 43.0645 379.469C22.8639 340.455 10.0703 285.858 10.0703 225C10.0703 164.142 22.8639 109.545 43.0645 70.5312C63.5274 31.0106 90.014 10.0703 116.5 10.0703Z" stroke="url(#paint1_linear_1906_59)" stroke-width="20.14"/>
<path d="M72 10.0703C77.3528 10.0703 84.2102 13.4671 91.9951 23.7568C99.6561 33.8829 106.985 49.173 113.32 68.9697C125.954 108.449 133.93 163.616 133.93 225C133.93 286.384 125.954 341.551 113.32 381.03C106.985 400.827 99.6561 416.117 91.9951 426.243C84.2102 436.533 77.3528 439.93 72 439.93C66.6472 439.93 59.7898 436.533 52.0049 426.243C44.3439 416.117 37.0147 400.827 30.6797 381.03C18.0464 341.551 10.0703 286.384 10.0703 225C10.0703 163.616 18.0464 108.449 30.6797 68.9697C37.0147 49.173 44.3439 33.8829 52.0049 23.7568C59.7898 13.4671 66.6472 10.0703 72 10.0703Z" stroke="url(#paint2_linear_1906_59)" stroke-width="20.14"/>
<defs>
<linearGradient id="paint0_linear_1906_59" x1="21.5" y1="242" x2="450" y2="225" gradientUnits="userSpaceOnUse">
<stop offset="0.259615"/>
<stop offset="0.721154" stop-color="#4255FF"/>
</linearGradient>
<linearGradient id="paint1_linear_1906_59" x1="11.1322" y1="242" x2="233.255" y2="237.437" gradientUnits="userSpaceOnUse">
<stop offset="0.288462"/>
<stop offset="0.836538" stop-color="#4255FF"/>
</linearGradient>
<linearGradient id="paint2_linear_1906_59" x1="6.88" y1="242" x2="144.194" y2="240.257" gradientUnits="userSpaceOnUse">
<stop offset="0.269231"/>
<stop offset="0.764423" stop-color="#4255FF"/>
</linearGradient>
</defs>
</svg>
