<svg width="200" height="138" viewBox="0 0 200 138" fill="none" xmlns="http://www.w3.org/2000/svg">
<g clip-path="url(#clip0_47_5)">
<path d="M64.5862 133.432L58.3447 115.854L56.3094 116.13L50.3393 132.325C49.1181 135.647 48.0326 136.893 46.2687 136.893V137.585H53.46V136.893C51.5605 136.893 50.7463 136.339 50.7463 135.232C50.7463 134.54 50.882 133.709 51.4248 132.602L52.2389 130.387H59.7016L60.787 133.571C61.0584 134.263 61.1941 134.955 61.1941 135.509V135.647C61.1941 136.616 60.5157 137.031 58.7518 137.031V137.723H67.8427V137.031C66.8929 136.893 66.6215 136.893 66.3501 136.754C65.6717 136.201 65.129 135.232 64.5862 133.432ZM52.6459 129.141L56.0381 119.868L59.2945 129.141H52.6459ZM71.3705 57.1655C78.9689 44.5697 85.8888 31.2818 95.3868 20.2086C96.8793 18.4092 98.3718 16.7482 100 15.2256C112.619 30.0361 99.186 57.996 77.8834 48.0301L76.9336 50.1063C77.4763 50.3831 78.0191 50.5215 78.5618 50.7984C83.1751 55.3661 81.9539 61.1795 81.8183 67.2698C81.6826 75.4363 82.2253 83.1875 85.2104 90.8004C87.9241 97.7211 91.7233 103.258 100 102.289C102.442 102.012 114.111 95.3681 108.955 93.5687C107.87 93.1534 103.121 98.9669 98.6432 96.8906C93.3515 94.3992 91.7233 85.679 90.3664 80.5576C88.4668 72.9448 88.3311 65.1935 87.2457 57.4423C86.8386 54.8124 86.4316 53.1514 85.7531 52.0441C98.1005 52.5978 112.076 44.9849 111.94 31.697C111.805 23.669 108.005 17.4403 102.442 12.8726C105.97 9.82744 109.905 7.33596 114.518 5.8134C119.81 4.15241 125.78 3.59875 130.936 5.95181C131.615 6.22864 138.399 11.0732 139.077 9.82744C139.484 8.85853 139.349 8.16646 138.535 7.47438C128.765 -5.67507 112.076 1.10728 99.186 10.6579C89.9594 4.70607 77.4763 2.07618 67.9784 2.07618C48.8467 1.93777 28.6297 9.13536 18.8603 27.2678C14.1113 36.2648 11.3976 46.7843 15.3325 56.4734C16.5537 59.3801 18.4533 62.7021 20.4885 65.0551C20.7599 65.332 27.1371 71.007 25.7803 66.9929C18.0462 49.4142 17.3678 32.3891 32.8359 18.4092C47.7613 4.98291 71.0991 2.2146 89.5523 8.44329C92.4017 9.41219 94.844 10.7963 96.8793 12.3189C91.859 16.333 87.6527 20.4854 84.8033 23.9458C76.6622 33.7733 70.4207 45.4002 63.7721 56.335C57.9377 65.8856 52.6459 76.2668 45.5903 84.8485C40.7056 90.9388 35.2782 96.7522 28.0869 99.9358C22.5238 102.427 15.6039 103.673 9.76941 101.735C9.09098 101.458 0.949868 95.9217 0.271442 97.3059C-1.76384 98.8285 5.02042 103.535 5.83454 103.95C10.1765 106.303 15.6039 106.441 20.3529 105.749C29.7151 104.227 38.5347 98.9669 45.4546 92.7382C56.7165 82.6339 63.7721 69.7612 71.3705 57.1655ZM18.0462 133.848C16.6894 135.785 14.6541 136.754 12.6188 136.754C8.41255 136.754 5.97022 132.879 5.97022 126.512C5.97022 123.328 6.51296 120.836 7.59844 119.037C8.54824 117.515 10.1765 116.546 11.9404 116.546C13.7043 116.546 15.4682 117.515 16.6894 119.176C17.5035 120.283 17.9105 121.39 18.1819 123.328H19.1317V116.269C18.1819 116.546 18.0462 116.684 17.6391 116.684C17.2321 116.684 16.825 116.684 16.418 116.546C13.84 115.854 13.1615 115.715 11.8047 115.715C5.83453 115.715 1.89966 120.144 1.89966 127.065C1.89966 130.526 2.84946 133.432 4.74905 135.37C6.51296 137.031 8.9553 138.138 11.669 138.138C15.8752 138.138 18.5889 136.201 20.0815 132.048L19.2674 131.494C18.8603 132.602 18.4533 133.155 18.0462 133.848ZM41.7911 133.848V119.729C41.7911 117.099 42.0625 116.822 44.2335 116.822V116.13H35.6853V116.822C37.8562 116.961 38.1276 117.238 38.1276 119.729V125.681H28.7653V119.729C28.7653 117.099 29.0367 116.822 31.2077 116.822V116.13H22.6595V116.822C24.8305 116.961 25.1018 117.238 25.1018 119.729V133.709C25.1018 136.339 24.8305 136.616 22.5238 136.754V137.446H31.3434V136.754C29.0367 136.616 28.7653 136.477 28.7653 133.709V126.512H38.1276V133.709C38.1276 136.339 37.8562 136.616 35.5496 136.754V137.446H44.3691V136.754C42.0625 136.754 41.7911 136.477 41.7911 133.848ZM92.9444 133.848V119.868C92.9444 117.238 93.0801 116.961 95.3868 116.822V116.13H88.8739L82.6324 132.325L76.5265 116.13H69.7423V116.822C70.8278 116.822 71.2348 116.961 71.5062 117.238C72.0489 117.653 72.1846 118.207 72.1846 119.729V131.771C72.1846 135.647 71.6419 136.616 69.1995 136.754V137.446H76.2552V136.754C74.8983 136.616 74.2199 136.477 73.8128 135.647C73.4058 134.955 73.2701 133.986 73.2701 131.771V118.207L80.5971 137.031H82.0896L89.4166 118.068V133.986C89.4166 136.616 89.1453 136.893 86.8386 136.893V137.585H95.5225V136.893C93.2158 136.754 92.9444 136.477 92.9444 133.848ZM162.144 60.9027L164.722 58.8264L167.3 57.3039L169.742 56.335L171.913 56.0581L173.27 56.1965L174.356 56.4734L175.577 57.027L176.662 57.5807L177.612 57.996H177.748C175.17 60.2106 172.727 62.8405 170.692 65.4704C166.893 70.8686 165.943 75.4363 165.943 78.7582C165.943 80.4192 166.214 81.8034 166.486 82.6339C167.843 87.4784 171.913 89.5546 175.712 89.9699C175.984 89.9699 176.391 89.9699 176.662 89.9699C180.461 89.9699 183.989 88.4473 186.974 86.5095C186.974 86.5095 187.517 86.2327 187.653 85.9558C188.467 85.4022 189.145 84.8485 189.824 84.1564C189.824 84.1564 189.824 84.1564 189.959 84.1564C190.095 84.018 190.638 83.4644 190.774 83.0491C190.909 82.6339 190.773 82.2186 190.502 81.8034C190.366 81.5265 190.095 81.3881 189.824 81.2497C189.145 81.1113 188.603 81.3881 188.195 81.8034C187.381 82.4955 186.432 83.1875 185.617 83.8796C182.497 85.9558 179.376 87.2016 177.069 87.2016C176.527 87.2016 175.984 87.0632 175.441 86.9247C173.813 86.3711 173.27 85.1253 173.134 83.1875C173.134 79.0351 176.662 72.2527 180.326 67.1314C180.868 67.2698 181.683 67.4082 182.497 67.4082C186.703 67.4082 193.08 64.7783 195.93 62.4252L195.387 62.2868L195.658 62.7021C197.965 60.6258 199.864 57.8575 199.864 55.2276C199.864 53.4282 198.779 51.6288 196.472 50.6599C195.658 50.2447 194.708 50.1063 193.759 50.1063C189.688 50.1063 184.125 52.8746 179.105 56.8886L179.24 56.6118V56.4734L179.105 55.2276V55.0892L178.426 53.7051L177.341 52.4593L175.848 51.4904L174.084 50.9368H173.949H171.371L168.657 51.7673L165.943 53.2898L163.229 55.3661L160.516 57.7191L157.938 60.349L155.495 62.9789L153.324 65.4704L151.968 67.1314L153.867 63.9478L156.445 60.2106L159.159 56.8886L161.873 53.9819L164.586 51.4904C164.722 51.352 164.858 51.352 164.858 51.0752C164.858 50.7984 164.722 50.6599 164.451 50.6599L161.737 50.7984L159.295 51.2136L157.124 51.9057L155.495 52.8746L153.46 54.674L151.289 57.1655L149.118 60.0722L147.083 63.2557L144.505 67.5466L143.419 69.7613L141.655 71.8375L139.484 74.6058L137.042 77.3741L134.6 80.004L133.379 81.2497L131.75 82.6339L130.122 84.018L128.494 85.2638L126.866 86.2327L125.509 86.6479H124.559L123.881 86.0943L123.609 85.2638L123.745 83.8796L124.288 82.2186L125.102 80.1424L126.187 77.7893L127.544 75.1594L129.444 71.9759L131.75 68.3771L134.328 64.3631L137.178 60.2106L140.299 55.9197L143.555 51.6288C143.691 51.4904 143.691 51.4904 143.691 51.352C143.691 51.0752 143.555 50.9368 143.284 50.9368C143.284 50.9368 143.284 50.9368 143.148 50.9368H140.57L137.992 51.4904L136.228 52.4593L134.328 54.3972L132.022 56.6118L131.615 57.027L132.022 55.7813V53.9819L131.615 52.5978V52.4593L130.801 51.352L129.715 50.6599L127.273 50.1063H127.137H124.423L121.303 50.7984L118.046 52.0441L114.79 53.7051L111.533 55.7813L108.277 58.1344L105.292 60.9027L102.578 63.8094L100.271 66.8545L98.7789 69.4844L97.5577 72.2527L96.6079 75.021L96.0652 77.7893L95.7938 80.4192L95.9295 82.9107L96.4723 85.1253L97.4221 87.0632L98.9146 88.5857L100.95 89.5546L103.257 89.8315L105.699 89.4162L108.277 88.3089L110.855 86.6479L113.569 84.4333L116.282 81.8034L117.911 80.004L117.639 81.1113V83.6028L118.318 85.8174L119.539 87.4784L121.167 88.7241L123.067 89.4162L125.102 89.6931H125.238L127.273 89.2778L129.444 88.3089L131.615 86.9247L133.65 85.2638L135.55 83.4644L137.178 81.8034L139.213 79.5887L139.484 79.3119L138.942 80.6961L137.992 84.8485L138.128 85.9558L138.67 87.34L139.349 88.7241L140.299 89.8315L141.384 90.2467H141.52C141.52 90.2467 141.52 90.2467 141.655 90.2467C141.791 90.2467 141.927 90.1083 141.927 90.1083L143.419 86.7863L144.641 84.018L145.726 81.665L146.947 79.4503L148.304 77.2357L149.932 74.7442L152.103 71.6991L154.546 68.6539L157.124 65.7472L159.702 62.9789L162.144 60.9027ZM195.522 52.4593C195.658 52.4593 195.794 52.4593 195.794 52.4593C196.201 52.7362 196.337 53.013 196.337 53.5667C196.337 54.9508 195.115 57.4423 192.809 59.7953C189.145 63.671 184.261 65.7472 181.683 65.7472C181.547 65.7472 181.411 65.7472 181.411 65.7472C185.346 60.0722 193.352 52.3209 195.522 52.4593ZM121.71 69.2076L119.267 72.8064L116.825 76.1284L114.247 79.0351L111.805 81.665L109.498 83.7412L107.327 85.4022L105.563 86.5095L104.206 87.0632H103.257L102.442 86.5095L102.035 85.4022L102.171 83.6028L102.714 81.5265L103.664 79.0351L105.02 76.4052L106.649 73.6369L108.548 70.8686L111.94 66.3009L115.197 62.4252L118.318 59.2417L121.167 56.6118L123.609 54.8124L125.78 53.7051L127.408 53.2898L128.63 53.5667L129.308 54.2587L129.444 55.5045L129.037 56.7502L128.223 58.688L127.137 60.9027L125.78 63.1173L124.423 65.332L123.067 67.4082L121.71 69.2076ZM191.316 136.754H188.195V126.788H190.231C193.216 126.788 194.03 127.342 194.301 130.11H195.251V122.636H194.301C194.03 125.404 193.216 125.958 190.231 125.958H188.195V116.961H190.909C194.844 116.961 196.337 118.345 197.015 122.221H197.965L197.422 116.13H181.954V116.822C184.261 116.822 184.532 117.099 184.532 119.868V133.848C184.532 136.477 184.261 136.754 181.954 136.893V137.585H197.693L198.236 130.941L197.286 130.802C196.608 135.232 195.115 136.754 191.316 136.754ZM172.863 116.822C174.356 116.961 174.898 117.099 175.305 117.93C175.712 118.622 175.848 119.591 175.848 121.805V132.602L164.315 115.992H158.48V116.684C160.787 116.822 161.194 117.515 161.194 120.283V131.633C161.194 135.509 160.651 136.477 158.209 136.616V137.446H165.265V136.616C162.822 136.477 162.28 135.647 162.28 131.91V119.176L174.898 137.446H176.934V121.667C176.934 119.868 177.069 118.622 177.476 117.93C177.883 117.238 178.562 116.961 179.919 116.822V115.992H172.863V116.822V116.822ZM106.377 116.13H97.9648V116.822C100.136 116.961 100.407 117.238 100.407 119.868V133.848C100.407 136.477 100.136 136.754 97.8291 136.754V137.446H106.784V136.754C104.342 136.616 104.071 136.477 104.071 133.848V128.449H105.427C107.734 128.449 109.905 128.172 111.126 127.757C113.569 126.788 114.79 124.989 114.79 122.082C114.654 117.93 112.076 116.13 106.377 116.13ZM109.362 126.512C108.548 127.342 107.191 127.757 105.427 127.757H103.935V116.961H105.835C109.091 116.961 110.719 118.76 110.719 122.221C110.719 124.02 110.176 125.543 109.362 126.512ZM148.168 128.311C150.475 128.449 150.746 128.588 150.746 131.079V135.924C150.339 136.339 150.068 136.477 149.525 136.616C148.575 137.031 147.626 137.169 146.811 137.169C145.455 137.169 144.098 136.616 143.284 135.785C141.655 134.124 140.706 130.664 140.706 126.65C140.706 123.882 141.113 121.529 142.062 119.729C143.012 117.653 144.776 116.546 146.947 116.546C148.847 116.546 150.475 117.376 151.56 119.037C152.239 120.006 152.646 121.252 152.917 122.913H154.003V116.269C153.324 116.546 152.917 116.684 152.375 116.684C151.968 116.684 151.56 116.684 151.153 116.546C148.982 115.992 148.304 115.854 146.811 115.854C140.706 115.854 136.771 120.421 136.771 127.342C136.771 134.124 140.434 138.138 146.54 138.138C148.033 138.138 149.254 138 151.153 137.308C152.51 136.893 153.189 136.754 154.41 136.616C154.41 135.647 154.274 135.232 154.274 133.709V131.218C154.274 129.557 154.41 129.003 154.681 128.726C154.953 128.449 155.495 128.311 156.445 128.311V127.619H148.168V128.311ZM132.157 133.432L126.052 115.854L124.016 116.13L118.046 132.325C116.825 135.647 115.74 136.893 113.976 136.893V137.585H121.167V136.893C119.267 136.893 118.453 136.339 118.453 135.232C118.453 134.54 118.589 133.709 119.132 132.602L119.946 130.387H127.408L128.494 133.571C128.765 134.263 128.901 134.955 128.901 135.509V135.647C128.901 136.616 128.223 137.031 126.459 137.031V137.723H135.685V137.031C134.735 136.893 134.464 136.893 134.193 136.754C133.243 136.201 132.836 135.232 132.157 133.432ZM120.217 129.141L123.609 119.868L126.866 129.141H120.217Z" fill="url(#paint0_linear_47_5)"/>
</g>
<defs>
<linearGradient id="paint0_linear_47_5" x1="29.9903" y1="161.134" x2="170.606" y2="23.2919" gradientUnits="userSpaceOnUse">
<stop stop-color="#AE8241"/>
<stop offset="0.00842327" stop-color="#B08542"/>
<stop offset="0.0852021" stop-color="#C19D4D"/>
<stop offset="0.2537" stop-color="#F5F3BD"/>
<stop offset="0.5473" stop-color="#FFF09D"/>
<stop offset="0.7811" stop-color="#E4B862"/>
<stop offset="1" stop-color="#AB7D2E"/>
</linearGradient>
<clipPath id="clip0_47_5">
<rect width="200" height="138" fill="white"/>
</clipPath>
</defs>
</svg>
